<svg width="18" height="15" viewBox="0 0 18 15" fill="none" xmlns="http://www.w3.org/2000/svg">
<path d="M8.99995 2.1001C6.96245 2.1001 5.28745 3.0251 4.00308 4.21572C2.79995 5.33447 1.9687 6.6626 1.5437 7.6001C1.9687 8.5376 2.79995 9.86572 3.99995 10.9845C5.28745 12.1751 6.96245 13.1001 8.99995 13.1001C11.0375 13.1001 12.7125 12.1751 13.9968 10.9845C15.2 9.86572 16.0312 8.5376 16.4562 7.6001C16.0312 6.6626 15.2 5.33447 14 4.21572C12.7125 3.0251 11.0375 2.1001 8.99995 2.1001ZM2.9812 3.11885C4.45308 1.7501 6.47495 0.600098 8.99995 0.600098C11.525 0.600098 13.5468 1.7501 15.0187 3.11885C16.4812 4.47822 17.4593 6.1001 17.9249 7.21572C18.0281 7.4626 18.0281 7.7376 17.9249 7.98447C17.4593 9.1001 16.4812 10.7251 15.0187 12.0813C13.5468 13.4501 11.525 14.6001 8.99995 14.6001C6.47495 14.6001 4.45308 13.4501 2.9812 12.0813C1.5187 10.7251 0.540576 9.1001 0.0780762 7.98447C-0.0250488 7.7376 -0.0250488 7.4626 0.0780762 7.21572C0.540576 6.1001 1.5187 4.4751 2.9812 3.11885ZM8.99995 10.1001C10.3812 10.1001 11.5 8.98135 11.5 7.6001C11.5 6.21885 10.3812 5.1001 8.99995 5.1001C8.97808 5.1001 8.95933 5.1001 8.93745 5.1001C8.97808 5.25947 8.99995 5.42822 8.99995 5.6001C8.99995 6.70322 8.10308 7.6001 6.99995 7.6001C6.82808 7.6001 6.65933 7.57822 6.49995 7.5376C6.49995 7.55947 6.49995 7.57822 6.49995 7.6001C6.49995 8.98135 7.6187 10.1001 8.99995 10.1001ZM8.99995 3.6001C10.0608 3.6001 11.0782 4.02152 11.8284 4.77167C12.5785 5.52182 13 6.53923 13 7.6001C13 8.66096 12.5785 9.67838 11.8284 10.4285C11.0782 11.1787 10.0608 11.6001 8.99995 11.6001C7.93909 11.6001 6.92167 11.1787 6.17152 10.4285C5.42138 9.67838 4.99995 8.66096 4.99995 7.6001C4.99995 6.53923 5.42138 5.52182 6.17152 4.77167C6.92167 4.02152 7.93909 3.6001 8.99995 3.6001Z" fill="#94A3B8"/>
</svg>
