<svg width="23" height="27" viewBox="0 0 23 27" fill="none" xmlns="http://www.w3.org/2000/svg">
<path d="M19.0088 13.9943C18.9974 11.8917 19.9484 10.3047 21.8734 9.13595C20.7963 7.59481 19.1692 6.74689 17.0208 6.58075C14.9869 6.42033 12.764 7.76668 11.9505 7.76668C11.0911 7.76668 9.12027 6.63804 7.5734 6.63804C4.37652 6.6896 0.979126 9.18752 0.979126 14.2693C0.979126 15.7703 1.25413 17.321 1.80413 18.9214C2.53746 21.024 5.18433 26.1802 7.94579 26.0943C9.38954 26.0599 10.4093 25.0688 12.2885 25.0688C14.1104 25.0688 15.0557 26.0943 16.6656 26.0943C19.45 26.0542 21.8448 21.3677 22.5437 19.2594C18.8083 17.5005 19.0088 14.1031 19.0088 13.9943ZM15.7661 4.587C17.3302 2.73075 17.1869 1.04064 17.1411 0.43335C15.7604 0.513558 14.1619 1.37293 13.251 2.43283C12.2484 3.5672 11.6583 4.97085 11.7843 6.5521C13.2796 6.66668 14.6432 5.89897 15.7661 4.587Z" fill="#0F172A"/>
</svg>
