<svg width="22" height="28" viewBox="0 0 22 28" fill="none" xmlns="http://www.w3.org/2000/svg">
<path d="M17.9179 2.38928C18.2339 1.65535 17.9982 0.798211 17.35 0.326782C16.7018 -0.144646 15.8179 -0.101789 15.2125 0.423211L1.49823 12.4232C0.962514 12.8946 0.769657 13.65 1.02144 14.3143C1.27323 14.9786 1.91609 15.4286 2.62859 15.4286H8.6018L4.48216 25.0393C4.16609 25.7732 4.4018 26.6304 5.05001 27.1018C5.69823 27.5732 6.58216 27.5304 7.18751 27.0054L20.9018 15.0054C21.4375 14.5339 21.6304 13.7786 21.3786 13.1143C21.1268 12.45 20.4893 12.0054 19.7714 12.0054H13.7982L17.9179 2.38928Z" fill="white"/>
</svg>
