<svg width="21" height="19" viewBox="0 0 21 19" fill="none" xmlns="http://www.w3.org/2000/svg">
<path d="M20.5931 9.27155C20.5931 9.89655 20.0723 10.3861 19.482 10.3861H18.3709L18.3952 15.9486C18.3952 16.0424 18.3882 16.1361 18.3778 16.2299V16.7924C18.3778 17.5597 17.7563 18.1813 16.9889 18.1813H16.4334C16.3952 18.1813 16.357 18.1813 16.3188 18.1778C16.2702 18.1813 16.2216 18.1813 16.173 18.1813L15.0445 18.1778H14.2112C13.4438 18.1778 12.8223 17.5563 12.8223 16.7889V15.9556V13.7334C12.8223 13.1188 12.3257 12.6222 11.7112 12.6222H9.48893C8.87435 12.6222 8.37782 13.1188 8.37782 13.7334V15.9556V16.7889C8.37782 17.5563 7.75629 18.1778 6.98893 18.1778H6.1556H5.04796C4.99588 18.1778 4.94379 18.1743 4.89171 18.1709C4.85004 18.1743 4.80838 18.1778 4.76671 18.1778H4.21115C3.44379 18.1778 2.82227 17.5563 2.82227 16.7889V12.9C2.82227 12.8688 2.82227 12.8341 2.82574 12.8028V10.3827H1.71463C1.08963 10.3827 0.603516 9.89655 0.603516 9.26808C0.603516 8.95558 0.707682 8.6778 0.950738 8.43475L9.85004 0.677802C10.0931 0.434747 10.3709 0.400024 10.6139 0.400024C10.857 0.400024 11.1348 0.469469 11.3431 0.64308L20.2112 8.43822C20.4889 8.68127 20.6278 8.95905 20.5931 9.27155Z" fill="#7C3AED"/>
</svg>
