<svg width="21" height="19" viewBox="0 0 21 19" fill="none" xmlns="http://www.w3.org/2000/svg">
<path d="M20.118 9.67158C20.118 10.2966 19.5972 10.7862 19.0069 10.7862H17.8958L17.9201 16.3487C17.9201 16.4424 17.9131 16.5362 17.9027 16.6299V17.1924C17.9027 17.9598 17.2812 18.5813 16.5138 18.5813H15.9583C15.9201 18.5813 15.8819 18.5813 15.8437 18.5778C15.7951 18.5813 15.7465 18.5813 15.6979 18.5813L14.5694 18.5778H13.7361C12.9687 18.5778 12.3472 17.9563 12.3472 17.1889V16.3556V14.1334C12.3472 13.5188 11.8506 13.0223 11.2361 13.0223H9.01383C8.39925 13.0223 7.90272 13.5188 7.90272 14.1334V16.3556V17.1889C7.90272 17.9563 7.2812 18.5778 6.51383 18.5778H5.6805H4.57286C4.52078 18.5778 4.4687 18.5744 4.41661 18.5709C4.37495 18.5744 4.33328 18.5778 4.29161 18.5778H3.73606C2.9687 18.5778 2.34717 17.9563 2.34717 17.1889V13.3C2.34717 13.2688 2.34717 13.2341 2.35064 13.2028V10.7827H1.23953C0.614529 10.7827 0.128418 10.2966 0.128418 9.6681C0.128418 9.3556 0.232585 9.07783 0.47564 8.83477L9.37495 1.07783C9.618 0.834771 9.89578 0.800049 10.1388 0.800049C10.3819 0.800049 10.6597 0.869493 10.868 1.0431L19.7361 8.83824C20.0138 9.0813 20.1527 9.35908 20.118 9.67158Z" fill="#6B7280"/>
</svg>
