<svg width="24" height="33" viewBox="0 0 24 33" fill="none" xmlns="http://www.w3.org/2000/svg">
<path d="M4 0.400146C1.79375 0.400146 0 2.1939 0 4.40015V28.4001C0 30.6064 1.79375 32.4001 4 32.4001H20C22.2062 32.4001 24 30.6064 24 28.4001V10.4001H16C14.8937 10.4001 14 9.5064 14 8.40015V0.400146H4ZM16 0.400146V8.40015H24L16 0.400146ZM7 16.4001H17C17.55 16.4001 18 16.8501 18 17.4001C18 17.9501 17.55 18.4001 17 18.4001H7C6.45 18.4001 6 17.9501 6 17.4001C6 16.8501 6.45 16.4001 7 16.4001ZM7 20.4001H17C17.55 20.4001 18 20.8501 18 21.4001C18 21.9501 17.55 22.4001 17 22.4001H7C6.45 22.4001 6 21.9501 6 21.4001C6 20.8501 6.45 20.4001 7 20.4001ZM7 24.4001H17C17.55 24.4001 18 24.8501 18 25.4001C18 25.9501 17.55 26.4001 17 26.4001H7C6.45 26.4001 6 25.9501 6 25.4001C6 24.8501 6.45 24.4001 7 24.4001Z" fill="white"/>
</svg>
