<svg width="19" height="19" viewBox="0 0 19 19" fill="none" xmlns="http://www.w3.org/2000/svg">
<path d="M8.42155 0.980469C8.93891 0.740885 9.53613 0.740885 10.0535 0.980469L17.6438 4.48741C17.9389 4.62283 18.1264 4.91797 18.1264 5.24436C18.1264 5.57075 17.9389 5.86589 17.6438 6.0013L10.0535 9.50825C9.53613 9.74783 8.93891 9.74783 8.42155 9.50825L0.831272 6.0013C0.536133 5.86241 0.348633 5.56727 0.348633 5.24436C0.348633 4.92144 0.536133 4.62283 0.831272 4.48741L8.42155 0.980469ZM15.7965 8.07769L17.6438 8.93186C17.9389 9.06728 18.1264 9.36241 18.1264 9.6888C18.1264 10.0152 17.9389 10.3103 17.6438 10.4457L10.0535 13.9527C9.53613 14.1923 8.93891 14.1923 8.42155 13.9527L0.831272 10.4457C0.536133 10.3069 0.348633 10.0117 0.348633 9.6888C0.348633 9.36589 0.536133 9.06728 0.831272 8.93186L2.67849 8.07769L7.95627 10.5152C8.76877 10.8902 9.70627 10.8902 10.5188 10.5152L15.7965 8.07769ZM10.5188 14.9596L15.7965 12.5221L17.6438 13.3763C17.9389 13.5117 18.1264 13.8069 18.1264 14.1332C18.1264 14.4596 17.9389 14.7548 17.6438 14.8902L10.0535 18.3971C9.53613 18.6367 8.93891 18.6367 8.42155 18.3971L0.831272 14.8902C0.536133 14.7513 0.348633 14.4562 0.348633 14.1332C0.348633 13.8103 0.536133 13.5117 0.831272 13.3763L2.67849 12.5221L7.95627 14.9596C8.76877 15.3346 9.70627 15.3346 10.5188 14.9596Z" fill="#7C3AED"/>
</svg>
