<svg width="19" height="19" viewBox="0 0 19 19" fill="none" xmlns="http://www.w3.org/2000/svg">
<path d="M8.559 0.58058C9.07636 0.340997 9.67358 0.340997 10.1909 0.58058L17.7812 4.08752C18.0764 4.22294 18.2639 4.51808 18.2639 4.84447C18.2639 5.17086 18.0764 5.466 17.7812 5.60141L10.1909 9.10836C9.67358 9.34794 9.07636 9.34794 8.559 9.10836L0.968723 5.60141C0.673584 5.46252 0.486084 5.16739 0.486084 4.84447C0.486084 4.52155 0.673584 4.22294 0.968723 4.08752L8.559 0.58058ZM15.934 7.6778L17.7812 8.53197C18.0764 8.66739 18.2639 8.96253 18.2639 9.28891C18.2639 9.6153 18.0764 9.91044 17.7812 10.0459L10.1909 13.5528C9.67358 13.7924 9.07636 13.7924 8.559 13.5528L0.968723 10.0459C0.673584 9.90697 0.486084 9.61183 0.486084 9.28891C0.486084 8.966 0.673584 8.66739 0.968723 8.53197L2.81595 7.6778L8.09372 10.1153C8.90622 10.4903 9.84372 10.4903 10.6562 10.1153L15.934 7.6778ZM10.6562 14.5597L15.934 12.1222L17.7812 12.9764C18.0764 13.1118 18.2639 13.407 18.2639 13.7334C18.2639 14.0597 18.0764 14.3549 17.7812 14.4903L10.1909 17.9972C9.67358 18.2368 9.07636 18.2368 8.559 17.9972L0.968723 14.4903C0.673584 14.3514 0.486084 14.0563 0.486084 13.7334C0.486084 13.4104 0.673584 13.1118 0.968723 12.9764L2.81595 12.1222L8.09372 14.5597C8.90622 14.9347 9.84372 14.9347 10.6562 14.5597Z" fill="#64748B"/>
</svg>
