<svg width="20" height="19" viewBox="0 0 20 19" fill="none" xmlns="http://www.w3.org/2000/svg">
<path d="M19.2638 4.00419L17.2742 0.854886C17.0971 0.573636 16.7811 0.400024 16.4443 0.400024H4.05545C3.71865 0.400024 3.40267 0.573636 3.22559 0.854886L1.23253 4.00419C0.204757 5.62919 1.11448 7.88961 3.03462 8.15002C3.17351 8.16739 3.31587 8.1778 3.45476 8.1778C4.36101 8.1778 5.16656 7.78197 5.71865 7.17086C6.27073 7.78197 7.07629 8.1778 7.98254 8.1778C8.88879 8.1778 9.69434 7.78197 10.2464 7.17086C10.7985 7.78197 11.6041 8.1778 12.5103 8.1778C13.42 8.1778 14.2221 7.78197 14.7742 7.17086C15.3298 7.78197 16.1318 8.1778 17.0381 8.1778C17.1805 8.1778 17.3193 8.16739 17.4582 8.15002C19.3853 7.89308 20.2985 5.63266 19.2673 4.00419H19.2638ZM17.6006 9.25072C17.6006 9.25072 17.6006 9.25072 17.5971 9.25072C17.4131 9.27502 17.2256 9.28891 17.0346 9.28891C16.6041 9.28891 16.1909 9.22294 15.8055 9.10489V13.7334H4.69434V9.10141C4.30545 9.22294 3.88879 9.28891 3.45823 9.28891C3.26726 9.28891 3.07629 9.27502 2.89226 9.25072H2.88879C2.74642 9.22989 2.60754 9.20558 2.47212 9.17086V13.7334V15.9556C2.47212 17.1813 3.46865 18.1778 4.69434 18.1778H15.8055C17.0311 18.1778 18.0277 17.1813 18.0277 15.9556V13.7334V9.17086C17.8888 9.20558 17.7499 9.23336 17.6006 9.25072Z" fill="#64748B"/>
</svg>
