<svg width="20" height="19" viewBox="0 0 20 19" fill="none" xmlns="http://www.w3.org/2000/svg">
<path d="M19.3764 4.40422L17.3868 1.25491C17.2097 0.97366 16.8938 0.800049 16.557 0.800049H4.16807C3.83127 0.800049 3.5153 0.97366 3.33821 1.25491L1.34516 4.40422C0.317378 6.02922 1.2271 8.28963 3.14724 8.55005C3.28613 8.56741 3.42849 8.57783 3.56738 8.57783C4.47363 8.57783 5.27918 8.18199 5.83127 7.57088C6.38335 8.18199 7.18891 8.57783 8.09516 8.57783C9.00141 8.57783 9.80696 8.18199 10.359 7.57088C10.9111 8.18199 11.7167 8.57783 12.6229 8.57783C13.5327 8.57783 14.3347 8.18199 14.8868 7.57088C15.4424 8.18199 16.2445 8.57783 17.1507 8.57783C17.2931 8.57783 17.432 8.56741 17.5709 8.55005C19.4979 8.2931 20.4111 6.03269 19.3799 4.40422H19.3764ZM17.7132 9.65074C17.7132 9.65074 17.7132 9.65074 17.7097 9.65074C17.5257 9.67505 17.3382 9.68894 17.1472 9.68894C16.7167 9.68894 16.3035 9.62297 15.9181 9.50491V14.1334H4.80696V9.50144C4.41807 9.62297 4.00141 9.68894 3.57085 9.68894C3.37988 9.68894 3.18891 9.67505 3.00488 9.65074H3.00141C2.85905 9.62991 2.72016 9.60561 2.58474 9.57088V14.1334V16.3556C2.58474 17.5813 3.58127 18.5778 4.80696 18.5778H15.9181C17.1438 18.5778 18.1403 17.5813 18.1403 16.3556V14.1334V9.57088C18.0014 9.60561 17.8625 9.63338 17.7132 9.65074Z" fill="#7C3AED"/>
</svg>
