<svg width="15" height="12" viewBox="0 0 15 12" fill="none" xmlns="http://www.w3.org/2000/svg">
<path d="M1.74583 0.972944C1.52916 0.802111 1.21458 0.841694 1.04374 1.05836C0.872912 1.27503 0.912495 1.58961 1.12916 1.76044L13.4625 11.4271C13.6791 11.5979 13.9937 11.5583 14.1645 11.3417C14.3354 11.125 14.2958 10.8104 14.0791 10.6396L11.8875 8.92292C12.7125 8.07709 13.2708 7.12918 13.552 6.45626C13.6208 6.29168 13.6208 6.10835 13.552 5.94376C13.2416 5.20002 12.5895 4.11669 11.6146 3.21252C10.6354 2.30002 9.28747 1.53336 7.60415 1.53336C6.18332 1.53336 4.99998 2.08127 4.07707 2.80002L1.74583 0.972944ZM5.5854 3.98127C6.11665 3.49585 6.82706 3.20002 7.60415 3.20002C9.26039 3.20002 10.6041 4.54377 10.6041 6.20001C10.6041 6.71876 10.4729 7.20626 10.2416 7.63126L9.43747 7.0021C9.61247 6.60001 9.65831 6.1396 9.53747 5.68335C9.30622 4.81877 8.54164 4.23752 7.69165 4.2021C7.57081 4.19794 7.49998 4.32919 7.53748 4.44585C7.58123 4.57919 7.60623 4.72085 7.60623 4.86877C7.60623 5.08127 7.55623 5.28127 7.46873 5.45835L5.58748 3.98335L5.5854 3.98127ZM8.70831 8.98959C8.36664 9.12501 7.99373 9.20001 7.60415 9.20001C5.9479 9.20001 4.60415 7.85626 4.60415 6.20001C4.60415 6.05626 4.61457 5.91668 4.63332 5.77918L2.66874 4.23127C2.19374 4.85002 1.85416 5.46668 1.65624 5.94376C1.58749 6.10835 1.58749 6.29168 1.65624 6.45626C1.96666 7.20001 2.61874 8.28334 3.59374 9.18751C4.5729 10.1 5.92082 10.8667 7.60415 10.8667C8.59998 10.8667 9.47706 10.5979 10.2333 10.1896L8.70831 8.98959Z" fill="#A0AEC0"/>
</svg>
