<svg width="24" height="25" viewBox="0 0 24 25" fill="none" xmlns="http://www.w3.org/2000/svg">
<path d="M15.75 17.3C20.3062 17.3 24 13.6063 24 9.05005C24 4.4938 20.3062 0.800049 15.75 0.800049C11.1938 0.800049 7.5 4.4938 7.5 9.05005C7.5 9.92661 7.63594 10.775 7.88906 11.5672L0.328125 19.1282C0.117188 19.3391 0 19.625 0 19.925V23.675C0 24.2985 0.501562 24.8 1.125 24.8H4.875C5.49844 24.8 6 24.2985 6 23.675V21.8H7.875C8.49844 21.8 9 21.2985 9 20.675V18.8H10.875C11.175 18.8 11.4609 18.6829 11.6719 18.4719L13.2328 16.911C14.025 17.1641 14.8734 17.3 15.75 17.3ZM17.625 5.30005C18.1223 5.30005 18.5992 5.49759 18.9508 5.84922C19.3025 6.20085 19.5 6.67777 19.5 7.17505C19.5 7.67233 19.3025 8.14924 18.9508 8.50087C18.5992 8.8525 18.1223 9.05005 17.625 9.05005C17.1277 9.05005 16.6508 8.8525 16.2992 8.50087C15.9475 8.14924 15.75 7.67233 15.75 7.17505C15.75 6.67777 15.9475 6.20085 16.2992 5.84922C16.6508 5.49759 17.1277 5.30005 17.625 5.30005Z" fill="white"/>
</svg>
