<svg width="25" height="22" viewBox="0 0 25 22" fill="none" xmlns="http://www.w3.org/2000/svg">
<path d="M2.10004 0.300049C2.92972 0.300049 3.60004 0.970361 3.60004 1.80005V17.55C3.60004 17.9625 3.93754 18.3 4.35004 18.3H23.1C23.9297 18.3 24.6 18.9704 24.6 19.8C24.6 20.6297 23.9297 21.3 23.1 21.3H4.35004C2.27816 21.3 0.600037 19.6219 0.600037 17.55V1.80005C0.600037 0.970361 1.27035 0.300049 2.10004 0.300049ZM6.60004 4.80005C6.60004 3.97036 7.27035 3.30005 8.10004 3.30005H17.1C17.9297 3.30005 18.6 3.97036 18.6 4.80005C18.6 5.62974 17.9297 6.30005 17.1 6.30005H8.10004C7.27035 6.30005 6.60004 5.62974 6.60004 4.80005ZM8.10004 7.80005H14.1C14.9297 7.80005 15.6 8.47036 15.6 9.30005C15.6 10.1297 14.9297 10.8 14.1 10.8H8.10004C7.27035 10.8 6.60004 10.1297 6.60004 9.30005C6.60004 8.47036 7.27035 7.80005 8.10004 7.80005ZM8.10004 12.3H20.1C20.9297 12.3 21.6 12.9704 21.6 13.8C21.6 14.6297 20.9297 15.3 20.1 15.3H8.10004C7.27035 15.3 6.60004 14.6297 6.60004 13.8C6.60004 12.9704 7.27035 12.3 8.10004 12.3Z" fill="white"/>
</svg>
