<svg width="25" height="20" viewBox="0 0 25 20" fill="none" xmlns="http://www.w3.org/2000/svg">
<path d="M0.700012 3.60002C0.700012 2.12918 1.89585 0.93335 3.36668 0.93335H22.0333C23.5042 0.93335 24.7 2.12918 24.7 3.60002V16.9333C24.7 18.4042 23.5042 19.6 22.0333 19.6H3.36668C1.89585 19.6 0.700012 18.4042 0.700012 16.9333V3.60002ZM6.03335 11.6C6.38697 11.6 6.72611 11.4595 6.97615 11.2095C7.2262 10.9594 7.36668 10.6203 7.36668 10.2667C7.36668 9.91306 7.2262 9.57392 6.97615 9.32387C6.72611 9.07383 6.38697 8.93335 6.03335 8.93335C5.67972 8.93335 5.34059 9.07383 5.09054 9.32387C4.84049 9.57392 4.70001 9.91306 4.70001 10.2667C4.70001 10.6203 4.84049 10.9594 5.09054 11.2095C5.34059 11.4595 5.67972 11.6 6.03335 11.6ZM7.36668 6.26668C7.36668 5.91306 7.2262 5.57392 6.97615 5.32387C6.72611 5.07383 6.38697 4.93335 6.03335 4.93335C5.67972 4.93335 5.34059 5.07383 5.09054 5.32387C4.84049 5.57392 4.70001 5.91306 4.70001 6.26668C4.70001 6.6203 4.84049 6.95944 5.09054 7.20949C5.34059 7.45954 5.67972 7.60002 6.03335 7.60002C6.38697 7.60002 6.72611 7.45954 6.97615 7.20949C7.2262 6.95944 7.36668 6.6203 7.36668 6.26668ZM6.03335 15.6C6.38697 15.6 6.72611 15.4595 6.97615 15.2095C7.2262 14.9594 7.36668 14.6203 7.36668 14.2667C7.36668 13.9131 7.2262 13.5739 6.97615 13.3239C6.72611 13.0738 6.38697 12.9333 6.03335 12.9333C5.67972 12.9333 5.34059 13.0738 5.09054 13.3239C4.84049 13.5739 4.70001 13.9131 4.70001 14.2667C4.70001 14.6203 4.84049 14.9594 5.09054 15.2095C5.34059 15.4595 5.67972 15.6 6.03335 15.6ZM10.0333 5.26668C9.47918 5.26668 9.03335 5.71252 9.03335 6.26668C9.03335 6.82085 9.47918 7.26668 10.0333 7.26668H19.3667C19.9208 7.26668 20.3667 6.82085 20.3667 6.26668C20.3667 5.71252 19.9208 5.26668 19.3667 5.26668H10.0333ZM10.0333 9.26668C9.47918 9.26668 9.03335 9.71252 9.03335 10.2667C9.03335 10.8208 9.47918 11.2667 10.0333 11.2667H19.3667C19.9208 11.2667 20.3667 10.8208 20.3667 10.2667C20.3667 9.71252 19.9208 9.26668 19.3667 9.26668H10.0333ZM10.0333 13.2667C9.47918 13.2667 9.03335 13.7125 9.03335 14.2667C9.03335 14.8208 9.47918 15.2667 10.0333 15.2667H19.3667C19.9208 15.2667 20.3667 14.8208 20.3667 14.2667C20.3667 13.7125 19.9208 13.2667 19.3667 13.2667H10.0333Z" fill="white"/>
</svg>
