<svg width="25" height="25" viewBox="0 0 25 25" fill="none" xmlns="http://www.w3.org/2000/svg">
<path d="M0.600037 12.6001C0.600037 9.4175 1.86432 6.36525 4.11476 4.11482C6.36519 1.86438 9.41744 0.600098 12.6 0.600098C15.7826 0.600098 18.8349 1.86438 21.0853 4.11482C23.3358 6.36525 24.6 9.4175 24.6 12.6001C24.6 15.7827 23.3358 18.8349 21.0853 21.0854C18.8349 23.3358 15.7826 24.6001 12.6 24.6001C9.41744 24.6001 6.36519 23.3358 4.11476 21.0854C1.86432 18.8349 0.600037 15.7827 0.600037 12.6001ZM9.4266 7.49541C9.07035 7.69229 8.85004 8.07197 8.85004 8.4751V16.7251C8.85004 17.1329 9.07035 17.5079 9.4266 17.7048C9.78285 17.9017 10.2141 17.897 10.5657 17.6813L17.3157 13.5563C17.6485 13.3501 17.8547 12.9892 17.8547 12.5954C17.8547 12.2017 17.6485 11.8407 17.3157 11.6345L10.5657 7.50947C10.2188 7.29853 9.78285 7.28916 9.4266 7.48603V7.49541Z" fill="white"/>
</svg>
