<svg width="41" height="41" viewBox="0 0 41 41" fill="none" xmlns="http://www.w3.org/2000/svg">
<path d="M32.8 0.200195H8.79999C4.38171 0.200195 0.799988 3.78192 0.799988 8.2002V32.2002C0.799988 36.6185 4.38171 40.2002 8.79999 40.2002H32.8C37.2183 40.2002 40.8 36.6185 40.8 32.2002V8.2002C40.8 3.78192 37.2183 0.200195 32.8 0.200195Z" fill="#2D8A47"/>
<path d="M21.925 11.9253C21.925 11.303 21.4223 10.8003 20.8 10.8003C20.1777 10.8003 19.675 11.303 19.675 11.9253V20.4577L17.0945 17.8772C16.6551 17.4378 15.9414 17.4378 15.5019 17.8772C15.0625 18.3167 15.0625 19.0304 15.5019 19.4698L20.0019 23.9698C20.4414 24.4093 21.1551 24.4093 21.5945 23.9698L26.0945 19.4698C26.534 19.0304 26.534 18.3167 26.0945 17.8772C25.6551 17.4378 24.9414 17.4378 24.5019 17.8772L21.925 20.4577V11.9253ZM14.05 23.1753C12.809 23.1753 11.8 24.1843 11.8 25.4253V26.5503C11.8 27.7913 12.809 28.8003 14.05 28.8003H27.55C28.791 28.8003 29.8 27.7913 29.8 26.5503V25.4253C29.8 24.1843 28.791 23.1753 27.55 23.1753H23.9816L22.3891 24.7679C21.5101 25.6468 20.0863 25.6468 19.2074 24.7679L17.6183 23.1753H14.05ZM26.9875 25.144C27.2113 25.144 27.4259 25.2329 27.5841 25.3912C27.7423 25.5494 27.8312 25.764 27.8312 25.9878C27.8312 26.2116 27.7423 26.4262 27.5841 26.5844C27.4259 26.7426 27.2113 26.8315 26.9875 26.8315C26.7637 26.8315 26.5491 26.7426 26.3909 26.5844C26.2326 26.4262 26.1437 26.2116 26.1437 25.9878C26.1437 25.764 26.2326 25.5494 26.3909 25.3912C26.5491 25.2329 26.7637 25.144 26.9875 25.144Z" fill="white"/>
</svg>
